<?xml version="1.0" encoding="UTF-8"?>
<svg xmlns="http://www.w3.org/2000/svg" xmlns:xlink="http://www.w3.org/1999/xlink" width="25pt" height="25pt" viewBox="0 0 25 25" version="1.1">
<g id="surface1">
<path style=" stroke:none;fill-rule:nonzero;fill:rgb(0%,0%,0%);fill-opacity:1;" d="M 12.5 0 C 7.652344 0 3.710938 3.941406 3.710938 8.789062 C 3.710938 10.425781 4.164062 12.023438 5.023438 13.410156 L 12 24.652344 C 12.132812 24.867188 12.367188 25 12.621094 25 C 12.625 25 12.625 25 12.628906 25 C 12.882812 24.996094 13.121094 24.863281 13.25 24.644531 L 20.050781 13.292969 C 20.859375 11.933594 21.289062 10.378906 21.289062 8.789062 C 21.289062 3.941406 17.347656 0 12.5 0 Z M 18.792969 12.539062 L 12.609375 22.859375 L 6.269531 12.640625 C 5.554688 11.484375 5.164062 10.152344 5.164062 8.789062 C 5.164062 4.75 8.460938 1.457031 12.5 1.457031 C 16.539062 1.457031 19.828125 4.75 19.828125 8.789062 C 19.828125 10.113281 19.46875 11.410156 18.792969 12.539062 Z M 18.792969 12.539062 "/>
<path style=" stroke:none;fill-rule:nonzero;fill:rgb(0%,0%,0%);fill-opacity:1;" d="M 12.5 4.394531 C 10.078125 4.394531 8.105469 6.367188 8.105469 8.789062 C 8.105469 11.195312 10.042969 13.183594 12.5 13.183594 C 14.984375 13.183594 16.894531 11.171875 16.894531 8.789062 C 16.894531 6.367188 14.921875 4.394531 12.5 4.394531 Z M 12.5 11.726562 C 10.875 11.726562 9.5625 10.410156 9.5625 8.789062 C 9.5625 7.171875 10.882812 5.851562 12.5 5.851562 C 14.117188 5.851562 15.433594 7.171875 15.433594 8.789062 C 15.433594 10.386719 14.148438 11.726562 12.5 11.726562 Z M 12.5 11.726562 "/>
</g>
</svg>
