<?xml version="1.0" encoding="UTF-8"?>
<svg xmlns="http://www.w3.org/2000/svg" xmlns:xlink="http://www.w3.org/1999/xlink" width="25pt" height="25pt" viewBox="0 0 25 25" version="1.1">
<g id="surface1">
<path style=" stroke:none;fill-rule:nonzero;fill:rgb(0%,0%,0%);fill-opacity:1;" d="M 22.699219 3.136719 L 18.722656 3.136719 L 18.722656 0.734375 C 18.722656 0.328125 18.394531 0 17.992188 0 L 0.734375 0 C 0.328125 0 0 0.328125 0 0.734375 L 0 21.128906 C 0 23.265625 1.734375 25 3.871094 25 C 3.871094 25 16.039062 25 21.128906 25 C 23.265625 25 25 23.265625 25 21.128906 L 25 5.4375 C 25 4.171875 23.96875 3.136719 22.699219 3.136719 Z M 20.554688 4.601562 C 20.449219 4.867188 20.398438 5.148438 20.398438 5.4375 L 20.398438 7.84375 L 18.722656 7.84375 L 18.722656 4.601562 Z M 3.871094 23.535156 C 2.542969 23.535156 1.464844 22.457031 1.464844 21.128906 L 1.464844 1.464844 L 17.257812 1.464844 L 17.257812 21.128906 C 17.257812 22.039062 17.574219 22.875 18.097656 23.535156 Z M 23.535156 21.128906 C 23.535156 22.457031 22.457031 23.535156 21.128906 23.535156 C 20.054688 23.535156 19.148438 22.832031 18.835938 21.863281 L 21.128906 21.863281 C 21.535156 21.863281 21.863281 21.535156 21.863281 21.128906 C 21.863281 20.726562 21.535156 20.398438 21.128906 20.398438 L 18.722656 20.398438 L 18.722656 18.722656 L 21.128906 18.722656 C 21.535156 18.722656 21.863281 18.394531 21.863281 17.992188 C 21.863281 17.585938 21.535156 17.257812 21.128906 17.257812 L 18.722656 17.257812 L 18.722656 15.585938 L 21.128906 15.585938 C 21.535156 15.585938 21.863281 15.257812 21.863281 14.851562 C 21.863281 14.449219 21.535156 14.121094 21.128906 14.121094 L 18.722656 14.121094 L 18.722656 12.449219 L 21.128906 12.449219 C 21.535156 12.449219 21.863281 12.121094 21.863281 11.714844 C 21.863281 11.3125 21.535156 10.984375 21.128906 10.984375 L 18.722656 10.984375 L 18.722656 9.308594 L 21.128906 9.308594 C 21.535156 9.308594 21.863281 8.980469 21.863281 8.578125 L 21.863281 5.4375 C 21.863281 4.984375 22.230469 4.601562 22.699219 4.601562 C 23.160156 4.601562 23.535156 4.976562 23.535156 5.4375 Z M 23.535156 21.128906 "/>
<path style=" stroke:none;fill-rule:nonzero;fill:rgb(0%,0%,0%);fill-opacity:1;" d="M 14.851562 3.136719 L 3.871094 3.136719 C 3.464844 3.136719 3.136719 3.464844 3.136719 3.871094 C 3.136719 4.273438 3.464844 4.601562 3.871094 4.601562 L 14.851562 4.601562 C 15.257812 4.601562 15.585938 4.273438 15.585938 3.871094 C 15.585938 3.464844 15.257812 3.136719 14.851562 3.136719 Z M 14.851562 3.136719 "/>
<path style=" stroke:none;fill-rule:nonzero;fill:rgb(0%,0%,0%);fill-opacity:1;" d="M 14.851562 14.121094 L 10.929688 14.121094 C 10.527344 14.121094 10.199219 14.449219 10.199219 14.851562 C 10.199219 15.257812 10.527344 15.585938 10.929688 15.585938 L 14.851562 15.585938 C 15.257812 15.585938 15.585938 15.257812 15.585938 14.851562 C 15.585938 14.449219 15.257812 14.121094 14.851562 14.121094 Z M 14.851562 14.121094 "/>
<path style=" stroke:none;fill-rule:nonzero;fill:rgb(0%,0%,0%);fill-opacity:1;" d="M 7.792969 14.121094 L 3.871094 14.121094 C 3.464844 14.121094 3.136719 14.449219 3.136719 14.851562 C 3.136719 15.257812 3.464844 15.585938 3.871094 15.585938 L 7.792969 15.585938 C 8.199219 15.585938 8.523438 15.257812 8.523438 14.851562 C 8.523438 14.449219 8.199219 14.121094 7.792969 14.121094 Z M 7.792969 14.121094 "/>
<path style=" stroke:none;fill-rule:nonzero;fill:rgb(0%,0%,0%);fill-opacity:1;" d="M 14.851562 20.398438 L 10.929688 20.398438 C 10.527344 20.398438 10.199219 20.726562 10.199219 21.128906 C 10.199219 21.535156 10.527344 21.863281 10.929688 21.863281 L 14.851562 21.863281 C 15.257812 21.863281 15.585938 21.535156 15.585938 21.128906 C 15.585938 20.726562 15.257812 20.398438 14.851562 20.398438 Z M 14.851562 20.398438 "/>
<path style=" stroke:none;fill-rule:nonzero;fill:rgb(0%,0%,0%);fill-opacity:1;" d="M 7.792969 20.398438 L 3.871094 20.398438 C 3.464844 20.398438 3.136719 20.726562 3.136719 21.128906 C 3.136719 21.535156 3.464844 21.863281 3.871094 21.863281 L 7.792969 21.863281 C 8.199219 21.863281 8.523438 21.535156 8.523438 21.128906 C 8.523438 20.726562 8.199219 20.398438 7.792969 20.398438 Z M 7.792969 20.398438 "/>
<path style=" stroke:none;fill-rule:nonzero;fill:rgb(0%,0%,0%);fill-opacity:1;" d="M 14.851562 17.257812 L 10.929688 17.257812 C 10.527344 17.257812 10.199219 17.585938 10.199219 17.992188 C 10.199219 18.394531 10.527344 18.722656 10.929688 18.722656 L 14.851562 18.722656 C 15.257812 18.722656 15.585938 18.394531 15.585938 17.992188 C 15.585938 17.585938 15.257812 17.257812 14.851562 17.257812 Z M 14.851562 17.257812 "/>
<path style=" stroke:none;fill-rule:nonzero;fill:rgb(0%,0%,0%);fill-opacity:1;" d="M 7.792969 17.257812 L 3.871094 17.257812 C 3.464844 17.257812 3.136719 17.585938 3.136719 17.992188 C 3.136719 18.394531 3.464844 18.722656 3.871094 18.722656 L 7.792969 18.722656 C 8.199219 18.722656 8.523438 18.394531 8.523438 17.992188 C 8.523438 17.585938 8.199219 17.257812 7.792969 17.257812 Z M 7.792969 17.257812 "/>
<path style=" stroke:none;fill-rule:nonzero;fill:rgb(0%,0%,0%);fill-opacity:1;" d="M 14.851562 6.277344 L 3.871094 6.277344 C 3.464844 6.277344 3.136719 6.605469 3.136719 7.007812 L 3.136719 11.714844 C 3.136719 12.121094 3.464844 12.449219 3.871094 12.449219 L 14.851562 12.449219 C 15.257812 12.449219 15.585938 12.121094 15.585938 11.714844 L 15.585938 7.007812 C 15.585938 6.605469 15.257812 6.277344 14.851562 6.277344 Z M 14.121094 10.984375 L 4.601562 10.984375 L 4.601562 7.742188 L 14.121094 7.742188 Z M 14.121094 10.984375 "/>
</g>
</svg>
