<?xml version="1.0" encoding="UTF-8"?>
<svg xmlns="http://www.w3.org/2000/svg" xmlns:xlink="http://www.w3.org/1999/xlink" width="22pt" height="22pt" viewBox="0 0 22 22" version="1.1">
<g id="surface1">
<path style=" stroke:none;fill-rule:nonzero;fill:rgb(0%,0%,0%);fill-opacity:1;" d="M 21.730469 20.433594 L 15.476562 14.179688 C 16.6875 12.683594 17.417969 10.78125 17.417969 8.707031 C 17.417969 3.90625 13.507812 0 8.707031 0 C 3.90625 0 0 3.90625 0 8.707031 C 0 13.511719 3.90625 17.417969 8.707031 17.417969 C 10.78125 17.417969 12.683594 16.6875 14.179688 15.476562 L 20.433594 21.730469 C 20.613281 21.910156 20.847656 22 21.082031 22 C 21.316406 22 21.550781 21.910156 21.730469 21.730469 C 22.089844 21.371094 22.089844 20.792969 21.730469 20.433594 Z M 8.707031 15.582031 C 4.917969 15.582031 1.832031 12.5 1.832031 8.707031 C 1.832031 4.917969 4.917969 1.832031 8.707031 1.832031 C 12.5 1.832031 15.582031 4.917969 15.582031 8.707031 C 15.582031 12.5 12.5 15.582031 8.707031 15.582031 Z M 8.707031 15.582031 "/>
</g>
</svg>
