<svg id="Layer_1" height="512" viewBox="0 0 512 512" width="512" xmlns="http://www.w3.org/2000/svg" data-name="Layer 1"><path d="m419.914 72.189-3.975-9.482a85.8 85.8 0 0 0 -79.288-52.707h-161.3a85.808 85.808 0 0 0 -79.296 52.707l-3.969 9.482a34.029 34.029 0 0 0 -31.086 33.868v25.738a6.158 6.158 0 0 0 5.975 6.205h28.01l11.468 319.75a45.749 45.749 0 0 0 45.97 44.25h204.964a45.778 45.778 0 0 0 45.965-44.1l12.516-319.9h29.157a6.158 6.158 0 0 0 5.975-6.205v-25.738a34.029 34.029 0 0 0 -31.086-33.868zm-312.795-4.865a73.809 73.809 0 0 1 68.23-45.324h161.3a73.809 73.809 0 0 1 68.23 45.324l1.977 4.676h-301.712zm284.243 390.107a33.815 33.815 0 0 1 -33.975 32.569h-204.964a33.792 33.792 0 0 1 -33.978-32.679l-11.453-319.321h296.867zm47.638-331.431h-366v-19.943a22.052 22.052 0 0 1 21.975-22.057h322.05a22.052 22.052 0 0 1 21.975 22.057z"/><path d="m123.729 198.421a6 6 0 0 0 5.972 5.5c.166 0 .334-.007.5-.021a6 6 0 0 0 5.485-6.474l-.556-6.709a6 6 0 0 0 -11.959.99z"/><path d="m129.987 213.3a6 6 0 0 0 -5.831 6.164l2.553 91.686a6 6 0 0 0 6 5.833h.17a6 6 0 0 0 5.83-6.165l-2.553-91.686a6.009 6.009 0 0 0 -6.169-5.832z"/><path d="m180 238h152a18 18 0 0 0 18-18v-41a18 18 0 0 0 -18-18h-152a18 18 0 0 0 -18 18v41a18 18 0 0 0 18 18zm-6-59a6 6 0 0 1 6-6h152a6 6 0 0 1 6 6v41a6 6 0 0 1 -6 6h-152a6 6 0 0 1 -6-6z"/><path d="m329.189 356.08a6 6 0 0 0 -4.758.592l-24.953 14.784a6 6 0 0 0 -2.268 7.925l15.171 29.251-25.381-.025v-10.031a6 6 0 0 0 -10.488-3.983l-26.412 29.769a6 6 0 0 0 -.019 7.943l26.417 30.061a6 6 0 0 0 10.502-3.961v-8.405h50.285a6 6 0 0 0 4.811-2.415l18.637-25a6 6 0 0 0 .561-6.258l-28.432-57.161a6 6 0 0 0 -3.673-3.086zm-48.189 81.92a6 6 0 0 0 -5.85 4.659l-12.562-14.3 12.412-13.983v.226a6 6 0 0 0 5.994 6l37.614.036 9.006 17.362zm57.318-5.425-27.845-53.685 14.52-8.6 23.915 48.079z"/><path d="m169.151 445.772a6 6 0 0 0 4.829 2.768l58.448 2.228h.229a6 6 0 0 0 5.995-6.242l-1.206-29.882a6 6 0 0 0 -5.811-5.755l-33.25-1.026 10.5-20.846 9.7 4.633a6 6 0 0 0 8.283-7.3l-12.5-37.85a6 6 0 0 0 -6.947-3.987l-38.831 8.277a6 6 0 0 0 -1.632 11.13l8.648 4.737-24.807 44.5a6 6 0 0 0 .183 6.149zm56.53-25.057.719 17.814-42.634-1.629 8.667-17.215zm-36.65-53.495a6 6 0 0 0 -2.141-8.059l17.765-3.783 6.4 19.384-2.308-1.1a6 6 0 0 0 -7.945 2.715l-27.213 54.05-10.564-16.557z"/><path d="m250.591 337.065a6 6 0 0 0 4.6 5.026l38.793 8.9a5.994 5.994 0 0 0 6.979-3.794l13.7-37.6a6 6 0 0 0 -8.6-7.27l-10.613 6.034-22.85-33.727a6 6 0 0 0 -4.971-2.634h-34.629a6 6 0 0 0 -4.925 2.574l-30.017 43.155a6 6 0 0 0 2.585 8.951l25.457 10.788a6 6 0 0 0 7.262-2.091l16.824-24.113 11.32 15.421-7.851 4.294a6 6 0 0 0 -3.064 6.086zm-24.291-12.543-14.179-6.008 21.107-30.347 9.453 12.878zm18.759-40.522h19.388l24.18 35.682a6 6 0 0 0 7.932 1.85l1.243-.706-6.3 17.282-18.23-4.181h.006a6 6 0 0 0 1.957-8.815z"/></svg>