<?xml version="1.0" encoding="UTF-8"?>
<svg xmlns="http://www.w3.org/2000/svg" xmlns:xlink="http://www.w3.org/1999/xlink" width="25pt" height="25pt" viewBox="0 0 25 25" version="1.1">
<g id="surface1">
<path style=" stroke:none;fill-rule:nonzero;fill:rgb(0%,0%,0%);fill-opacity:1;" d="M 21.339844 3.660156 C 18.976562 1.300781 15.839844 0 12.5 0 C 9.160156 0 6.023438 1.300781 3.660156 3.660156 C 1.300781 6.023438 0 9.160156 0 12.5 C 0 15.839844 1.300781 18.976562 3.660156 21.339844 C 6.023438 23.699219 9.160156 25 12.5 25 C 15.839844 25 18.976562 23.699219 21.339844 21.339844 C 23.699219 18.976562 25 15.839844 25 12.5 C 25 9.160156 23.699219 6.023438 21.339844 3.660156 Z M 6.265625 21.601562 C 6.789062 18.589844 9.398438 16.371094 12.5 16.371094 C 15.601562 16.371094 18.210938 18.589844 18.734375 21.601562 C 16.957031 22.820312 14.8125 23.535156 12.5 23.535156 C 10.1875 23.535156 8.042969 22.820312 6.265625 21.601562 Z M 8.527344 10.929688 C 8.527344 8.738281 10.308594 6.957031 12.5 6.957031 C 14.691406 6.957031 16.472656 8.738281 16.472656 10.929688 C 16.472656 13.121094 14.691406 14.90625 12.5 14.90625 C 10.308594 14.90625 8.527344 13.121094 8.527344 10.929688 Z M 20.003906 20.585938 C 19.609375 19.183594 18.824219 17.910156 17.726562 16.917969 C 17.054688 16.308594 16.289062 15.828125 15.464844 15.488281 C 16.953125 14.519531 17.941406 12.835938 17.941406 10.929688 C 17.941406 7.933594 15.5 5.492188 12.5 5.492188 C 9.5 5.492188 7.0625 7.933594 7.0625 10.929688 C 7.0625 12.835938 8.046875 14.519531 9.535156 15.488281 C 8.710938 15.828125 7.945312 16.308594 7.273438 16.917969 C 6.175781 17.910156 5.390625 19.183594 4.996094 20.585938 C 2.828125 18.566406 1.464844 15.691406 1.464844 12.5 C 1.464844 6.414062 6.414062 1.464844 12.5 1.464844 C 18.585938 1.464844 23.535156 6.414062 23.535156 12.5 C 23.535156 15.691406 22.171875 18.566406 20.003906 20.585938 Z M 20.003906 20.585938 "/>
</g>
</svg>
