<?xml version="1.0" encoding="UTF-8"?>
<svg xmlns="http://www.w3.org/2000/svg" xmlns:xlink="http://www.w3.org/1999/xlink" width="22pt" height="22pt" viewBox="0 0 22 22" version="1.1">
<g id="surface1">
<path style=" stroke:none;fill-rule:nonzero;fill:rgb(0%,0%,0%);fill-opacity:1;" d="M 20.425781 3.554688 C 20.429688 3.535156 20.417969 3.519531 20.417969 3.503906 L 20.417969 0.5625 C 20.429688 0.265625 20.191406 0.0117188 19.890625 0 C 19.882812 0 19.878906 0 19.871094 0 L 2.121094 0 C 1.820312 0 1.574219 0.25 1.578125 0.546875 C 1.578125 0.554688 1.578125 0.558594 1.578125 0.5625 L 1.578125 3.503906 C 1.578125 3.519531 1.566406 3.535156 1.574219 3.554688 C 1.574219 3.558594 1.566406 3.570312 1.574219 3.578125 C 1.574219 3.585938 1.574219 3.597656 1.574219 3.605469 C 1.574219 3.617188 1.574219 3.621094 1.578125 3.632812 C 1.582031 3.644531 1.582031 3.648438 1.582031 3.65625 C 1.582031 3.660156 1.589844 3.671875 1.589844 3.683594 C 1.589844 3.6875 1.59375 3.699219 1.59375 3.707031 C 1.601562 3.71875 1.601562 3.722656 1.605469 3.734375 C 1.613281 3.738281 1.613281 3.75 1.617188 3.757812 C 1.621094 3.761719 1.621094 3.773438 1.628906 3.78125 C 1.632812 3.785156 1.640625 3.796875 1.640625 3.800781 C 1.640625 3.808594 1.652344 3.820312 1.652344 3.824219 C 1.65625 3.832031 1.664062 3.839844 1.667969 3.847656 C 1.671875 3.851562 1.679688 3.859375 1.679688 3.863281 C 1.679688 3.863281 1.691406 3.863281 1.695312 3.871094 L 8.460938 11.824219 L 8.460938 21.4375 C 8.453125 21.648438 8.574219 21.847656 8.769531 21.945312 C 8.84375 21.976562 8.921875 22 9.007812 22 C 9.136719 22 9.261719 21.953125 9.355469 21.875 L 13.339844 18.644531 C 13.46875 18.535156 13.542969 18.371094 13.535156 18.203125 L 13.535156 11.824219 L 20.292969 3.871094 C 20.292969 3.871094 20.300781 3.871094 20.304688 3.863281 C 20.3125 3.859375 20.316406 3.851562 20.324219 3.847656 C 20.328125 3.839844 20.335938 3.832031 20.339844 3.824219 C 20.34375 3.820312 20.351562 3.808594 20.355469 3.800781 C 20.363281 3.796875 20.367188 3.785156 20.367188 3.78125 C 20.375 3.773438 20.378906 3.761719 20.378906 3.757812 C 20.386719 3.75 20.386719 3.738281 20.390625 3.734375 C 20.394531 3.722656 20.394531 3.71875 20.402344 3.707031 C 20.40625 3.699219 20.40625 3.6875 20.40625 3.683594 C 20.414062 3.671875 20.414062 3.667969 20.414062 3.65625 C 20.414062 3.644531 20.417969 3.636719 20.417969 3.632812 C 20.417969 3.628906 20.425781 3.617188 20.425781 3.605469 C 20.425781 3.59375 20.429688 3.582031 20.429688 3.578125 C 20.429688 3.570312 20.417969 3.558594 20.425781 3.554688 Z M 12.554688 11.25 C 12.464844 11.351562 12.414062 11.480469 12.410156 11.613281 L 12.410156 17.933594 L 9.589844 20.25 L 9.589844 11.613281 C 9.582031 11.480469 9.53125 11.351562 9.441406 11.25 L 3.339844 4.0625 L 18.660156 4.0625 Z M 19.289062 2.933594 L 2.707031 2.933594 L 2.707031 1.128906 L 19.289062 1.128906 Z M 19.289062 2.933594 "/>
</g>
</svg>
